<svg id="Layer_1" data-name="Layer 1" xmlns="http://www.w3.org/2000/svg" viewBox="0 0 107 107"><defs><style>.cls-1{fill:#eaeaea;}.cls-2{fill:#202020;}</style></defs><circle class="cls-1" cx="53.5" cy="53.5" r="52.39"/><path class="cls-2" d="M38.67,34.2a5.17,5.17,0,1,0,5.17,5.17A5.18,5.18,0,0,0,38.67,34.2Z"/><path class="cls-2" d="M53.5,34.2a5.17,5.17,0,1,0,5.17,5.17A5.19,5.19,0,0,0,53.5,34.2Z"/><path class="cls-2" d="M68.32,44.63a5.17,5.17,0,1,0-5.17-5.17A5.19,5.19,0,0,0,68.32,44.63Z"/><path class="cls-2" d="M38.67,48.16a5.18,5.18,0,1,0,5.17,5.18A5.19,5.19,0,0,0,38.67,48.16Z"/><path class="cls-2" d="M53.5,48.16a5.18,5.18,0,1,0,5.17,5.18A5.19,5.19,0,0,0,53.5,48.16Z"/><path class="cls-2" d="M68.32,48.16a5.18,5.18,0,1,0,5.18,5.18A5.19,5.19,0,0,0,68.32,48.16Z"/><path class="cls-2" d="M38.67,62a5.18,5.18,0,1,0,5.17,5.18A5.19,5.19,0,0,0,38.67,62Z"/><path class="cls-2" d="M53.5,62a5.18,5.18,0,1,0,5.17,5.18A5.19,5.19,0,0,0,53.5,62Z"/><path class="cls-2" d="M68.32,62a5.18,5.18,0,1,0,5.18,5.18A5.19,5.19,0,0,0,68.32,62Z"/></svg>